<?xml version="1.0" standalone="no"?>
<!DOCTYPE svg PUBLIC "-//W3C//DTD SVG 1.1//EN" "http://www.w3.org/Graphics/SVG/1.1/DTD/svg11.dtd">
<!--Generator: Xara Designer (www.xara.com), SVG filter version: 6.1.0.16-->
<svg stroke-width="0.501" stroke-linejoin="bevel" fill-rule="evenodd" xmlns:xlink="http://www.w3.org/1999/xlink" xmlns="http://www.w3.org/2000/svg" version="1.1" overflow="visible" width="375pt" height="375pt" viewBox="0 0 375 375">
 <defs>
	</defs>
 <g id="Document" fill="none" stroke="black" font-family="Times New Roman" font-size="16" transform="scale(1 -1)">
  <g id="Spread" transform="translate(0 -375)">
   <g id="Layer 1">
    <path d="M 0,375 L 0,0 L 375,0 L 375,375 L 0,375 Z" fill="#ffffff" stroke="none" stroke-width="1.984" stroke-linejoin="miter" marker-start="none" marker-end="none" stroke-miterlimit="79.8403193612775"/>
    <path d="M 72.924,33.756 L 72.924,226.663 C 72.916,240.123 75.301,253.813 80.341,267.154 C 102.69,326.306 168.825,356.174 227.98,333.833 C 273.795,316.526 302.053,272.937 302.074,226.663 L 302.074,65.084 L 302.077,33.759 L 279.154,33.759 L 279.154,44.982 L 95.839,44.982 L 95.839,33.756 L 72.924,33.756 Z M 235.014,100.528 C 237.248,106.435 238.306,112.511 238.303,118.48 L 238.303,199.036 L 230.682,199.036 L 230.682,199.033 L 144.314,199.033 L 144.314,199.036 L 136.703,199.036 L 136.703,199.033 L 136.695,199.033 L 136.695,170.253 L 136.703,170.253 L 136.703,118.48 C 136.71,97.958 149.23,78.634 169.553,70.959 C 195.775,61.053 225.101,74.299 235.014,100.528 Z M 184.788,77.61 L 187.818,80.639 L 190.758,77.697 L 190.804,77.653 C 188.813,77.499 186.805,77.482 184.788,77.61 Z M 172.241,80.32 C 166.329,82.554 161.195,85.949 156.995,90.148 L 167.653,100.806 L 181.813,86.645 L 174.655,79.486 C 173.848,79.737 173.043,80.015 172.241,80.32 Z M 200.82,79.645 L 200.802,79.666 L 193.822,86.645 L 207.984,100.806 L 218.302,90.485 L 218.321,90.466 C 213.416,85.478 207.39,81.784 200.82,79.645 Z M 187.818,92.649 L 173.657,106.81 L 187.818,120.971 L 201.979,106.81 L 187.818,92.649 Z M 144.414,117.899 L 147.486,120.971 L 161.647,106.81 L 151.589,96.752 C 147.421,103.015 144.915,110.315 144.414,117.899 Z M 223.672,97.127 L 223.653,97.143 L 213.988,106.81 L 228.149,120.971 L 230.585,118.534 L 230.624,118.497 C 230.401,114.138 229.51,109.746 227.888,105.453 C 226.76,102.473 225.342,99.691 223.672,97.127 Z M 167.653,112.814 L 153.492,126.976 L 167.653,141.137 L 181.813,126.976 L 167.653,112.814 Z M 207.984,112.814 L 193.822,126.976 L 207.984,141.137 L 222.145,126.976 L 207.984,112.814 Z M 147.486,132.981 L 144.319,136.149 L 144.316,158.132 L 147.486,161.302 L 161.647,147.142 L 147.486,132.981 Z M 187.818,132.981 L 173.657,147.142 L 187.818,161.302 L 201.979,147.142 L 187.818,132.981 Z M 228.149,132.981 L 213.988,147.142 L 228.149,161.302 L 230.682,158.77 L 230.682,135.513 L 228.149,132.981 Z M 167.653,153.146 L 153.492,167.308 L 156.436,170.253 L 178.868,170.253 L 181.813,167.308 L 167.653,153.146 Z M 207.984,153.146 L 193.822,167.308 L 196.768,170.253 L 219.199,170.253 L 222.145,167.308 L 207.984,153.146 Z M 219.882,312.403 C 172.559,330.285 119.655,306.379 101.775,259.056 C 97.737,248.396 95.834,237.435 95.839,226.663 L 279.152,226.663 C 279.132,263.682 256.543,298.551 219.882,312.403 Z" fill="#666666" stroke="none" stroke-linejoin="miter" stroke-width="5.283" marker-start="none" marker-end="none" stroke-miterlimit="79.8403193612775"/>
   </g>
  </g>
 </g>
</svg>
