<?xml version="1.0" standalone="no"?>
<!DOCTYPE svg PUBLIC "-//W3C//DTD SVG 1.1//EN" "http://www.w3.org/Graphics/SVG/1.1/DTD/svg11.dtd">
<!--Generator: Xara Designer (www.xara.com), SVG filter version: 6.1.0.16-->
<svg stroke-width="0.501" stroke-linejoin="bevel" fill-rule="evenodd" xmlns:xlink="http://www.w3.org/1999/xlink" xmlns="http://www.w3.org/2000/svg" version="1.1" overflow="visible" width="375pt" height="375pt" viewBox="0 0 375 375">
 <defs>
	</defs>
 <g id="Document" fill="none" stroke="black" font-family="Times New Roman" font-size="16" transform="scale(1 -1)">
  <g id="Spread" transform="translate(0 -375)">
   <g id="Layer 1">
    <path d="M 0,375 L 0,0 L 375,0 L 375,375 L 0,375 Z" fill="#ff0000" stroke="none" stroke-width="1.984" stroke-linejoin="miter" marker-start="none" marker-end="none" stroke-miterlimit="79.8403193612775"/>
    <g id="Group" fill="#ffffff" fill-rule="evenodd" stroke-linejoin="miter" stroke="none" stroke-width="0.829" stroke-miterlimit="79.8403193612775">
     <path d="M 187.499,279.889 C 187.499,279.889 104.951,279.889 84.366,274.373 C 73.01,271.335 64.066,262.391 61.027,251.034 C 55.515,230.449 55.515,187.494 55.515,187.494 C 55.515,187.494 55.515,144.547 61.027,123.959 C 64.066,112.602 73.01,103.658 84.366,100.623 C 104.951,95.111 187.499,95.111 187.499,95.111 C 187.499,95.111 270.047,95.111 290.632,100.623 C 301.992,103.658 310.932,112.602 313.97,123.959 C 319.486,144.547 319.486,187.494 319.486,187.494 C 319.486,187.494 319.486,230.449 313.97,251.034 C 310.932,262.391 301.992,271.335 290.632,274.373 C 270.047,279.889 187.499,279.889 187.499,279.889 Z M 161.104,227.095 L 229.681,187.494 L 161.104,147.902 L 161.104,227.095 Z" marker-start="none" marker-end="none"/>
    </g>
   </g>
  </g>
 </g>
</svg>
